<mxfile host="app.diagrams.net" modified="2023-08-08T11:24:19.853Z" agent="Mozilla/5.0 (Macintosh; Intel Mac OS X 10.15; rv:109.0) Gecko/20100101 Firefox/115.0" etag="EZ_L7PV5nBUlc9A9wNtp" version="21.6.6" type="github">
  <diagram name="Page-1" id="ywXSwxyjO-u2NEMn3kfx">
    <mxGraphModel dx="954" dy="518" grid="1" gridSize="10" guides="1" tooltips="1" connect="1" arrows="1" fold="1" page="1" pageScale="1" pageWidth="850" pageHeight="1100" math="0" shadow="0">
      <root>
        <mxCell id="0" />
        <mxCell id="1" parent="0" />
        <mxCell id="5YwJjeHSeac4onPgQTvh-7" value="" style="shape=cube;whiteSpace=wrap;html=1;boundedLbl=1;backgroundOutline=1;darkOpacity=0.05;darkOpacity2=0.1;size=40;direction=east;flipH=1;fillColor=#ffe6cc;strokeColor=#d79b00;" vertex="1" parent="1">
          <mxGeometry x="316" y="231.25" width="50" height="133.75" as="geometry" />
        </mxCell>
        <mxCell id="5YwJjeHSeac4onPgQTvh-13" value="" style="shape=cube;whiteSpace=wrap;html=1;boundedLbl=1;backgroundOutline=1;darkOpacity=0.05;darkOpacity2=0.1;size=3;direction=east;flipH=1;fillColor=#dae8fc;strokeColor=#6c8ebf;" vertex="1" parent="1">
          <mxGeometry x="415" y="294.44000000000005" width="74" height="8" as="geometry" />
        </mxCell>
        <mxCell id="5YwJjeHSeac4onPgQTvh-15" value="" style="shape=cube;whiteSpace=wrap;html=1;boundedLbl=1;backgroundOutline=1;darkOpacity=0.05;darkOpacity2=0.1;size=3;direction=east;flipH=1;fillColor=#dae8fc;strokeColor=#6c8ebf;" vertex="1" parent="1">
          <mxGeometry x="492" y="294.44000000000005" width="38" height="8" as="geometry" />
        </mxCell>
        <mxCell id="5YwJjeHSeac4onPgQTvh-16" value="" style="shape=cube;whiteSpace=wrap;html=1;boundedLbl=1;backgroundOutline=1;darkOpacity=0.05;darkOpacity2=0.1;size=7;direction=east;flipH=1;fillColor=#ffe6cc;strokeColor=#d79b00;" vertex="1" parent="1">
          <mxGeometry x="432" y="395.32000000000005" width="30" height="20" as="geometry" />
        </mxCell>
        <mxCell id="5YwJjeHSeac4onPgQTvh-17" value="" style="shape=cube;whiteSpace=wrap;html=1;boundedLbl=1;backgroundOutline=1;darkOpacity=0.05;darkOpacity2=0.1;size=7;direction=east;flipH=1;fillColor=#f8cecc;strokeColor=#b85450;" vertex="1" parent="1">
          <mxGeometry x="432" y="425.32000000000005" width="30" height="20" as="geometry" />
        </mxCell>
        <mxCell id="5YwJjeHSeac4onPgQTvh-18" value="" style="shape=cube;whiteSpace=wrap;html=1;boundedLbl=1;backgroundOutline=1;darkOpacity=0.05;darkOpacity2=0.1;size=7;direction=east;flipH=1;fillColor=#dae8fc;strokeColor=#6c8ebf;" vertex="1" parent="1">
          <mxGeometry x="432" y="455.32000000000005" width="30" height="20" as="geometry" />
        </mxCell>
        <mxCell id="5YwJjeHSeac4onPgQTvh-19" value="" style="shape=cube;whiteSpace=wrap;html=1;boundedLbl=1;backgroundOutline=1;darkOpacity=0.05;darkOpacity2=0.1;size=3;direction=east;flipH=1;fillColor=#d5e8d4;strokeColor=#82b366;" vertex="1" parent="1">
          <mxGeometry x="532" y="294.43000000000006" width="38" height="8" as="geometry" />
        </mxCell>
        <mxCell id="5YwJjeHSeac4onPgQTvh-20" value="" style="shape=cube;whiteSpace=wrap;html=1;boundedLbl=1;backgroundOutline=1;darkOpacity=0.05;darkOpacity2=0.1;size=7;direction=east;flipH=1;fillColor=#d5e8d4;strokeColor=#82b366;" vertex="1" parent="1">
          <mxGeometry x="432" y="485.32000000000005" width="30" height="20" as="geometry" />
        </mxCell>
        <mxCell id="5YwJjeHSeac4onPgQTvh-25" value="&lt;b&gt;fc1&lt;/b&gt;" style="text;html=1;strokeColor=none;fillColor=none;align=center;verticalAlign=middle;whiteSpace=wrap;rounded=0;" vertex="1" parent="1">
          <mxGeometry x="452" y="258.28000000000003" width="40" height="30" as="geometry" />
        </mxCell>
        <mxCell id="5YwJjeHSeac4onPgQTvh-27" value="&lt;b&gt;fc2&lt;/b&gt;" style="text;html=1;strokeColor=none;fillColor=none;align=center;verticalAlign=middle;whiteSpace=wrap;rounded=0;" vertex="1" parent="1">
          <mxGeometry x="512" y="258.27000000000004" width="40" height="30" as="geometry" />
        </mxCell>
        <mxCell id="5YwJjeHSeac4onPgQTvh-29" value="248 x 496 x 16" style="text;html=1;strokeColor=none;fillColor=none;align=center;verticalAlign=middle;whiteSpace=wrap;rounded=0;" vertex="1" parent="1">
          <mxGeometry x="291" y="385.32" width="99" height="30" as="geometry" />
        </mxCell>
        <mxCell id="5YwJjeHSeac4onPgQTvh-32" value="15 x 31 x 512" style="text;html=1;strokeColor=none;fillColor=none;align=center;verticalAlign=middle;whiteSpace=wrap;rounded=0;" vertex="1" parent="1">
          <mxGeometry x="380" y="341.44000000000005" width="99" height="23.88" as="geometry" />
        </mxCell>
        <mxCell id="5YwJjeHSeac4onPgQTvh-34" value="512" style="text;html=1;strokeColor=none;fillColor=none;align=center;verticalAlign=middle;whiteSpace=wrap;rounded=0;" vertex="1" parent="1">
          <mxGeometry x="413" y="308.6" width="77" height="15" as="geometry" />
        </mxCell>
        <mxCell id="5YwJjeHSeac4onPgQTvh-35" value="4" style="text;html=1;strokeColor=none;fillColor=none;align=center;verticalAlign=middle;whiteSpace=wrap;rounded=0;" vertex="1" parent="1">
          <mxGeometry x="536.5" y="308.6" width="99" height="24" as="geometry" />
        </mxCell>
        <mxCell id="5YwJjeHSeac4onPgQTvh-36" value="convolutional + ReLU" style="text;html=1;strokeColor=none;fillColor=none;align=left;verticalAlign=middle;whiteSpace=wrap;rounded=0;fontStyle=1" vertex="1" parent="1">
          <mxGeometry x="473" y="392.38000000000005" width="138" height="23.88" as="geometry" />
        </mxCell>
        <mxCell id="5YwJjeHSeac4onPgQTvh-37" value="max pooling" style="text;html=1;strokeColor=none;fillColor=none;align=left;verticalAlign=middle;whiteSpace=wrap;rounded=0;fontStyle=1" vertex="1" parent="1">
          <mxGeometry x="473" y="422.38000000000005" width="138" height="23.88" as="geometry" />
        </mxCell>
        <mxCell id="5YwJjeHSeac4onPgQTvh-38" value="fully connected" style="text;html=1;strokeColor=none;fillColor=none;align=left;verticalAlign=middle;whiteSpace=wrap;rounded=0;fontStyle=1" vertex="1" parent="1">
          <mxGeometry x="473" y="453.44000000000005" width="138" height="23.88" as="geometry" />
        </mxCell>
        <mxCell id="5YwJjeHSeac4onPgQTvh-39" value="softmax" style="text;html=1;strokeColor=none;fillColor=none;align=left;verticalAlign=middle;whiteSpace=wrap;rounded=0;fontStyle=1" vertex="1" parent="1">
          <mxGeometry x="472" y="481.44000000000005" width="138" height="23.88" as="geometry" />
        </mxCell>
        <mxCell id="5YwJjeHSeac4onPgQTvh-45" value="" style="shape=cube;whiteSpace=wrap;html=1;boundedLbl=1;backgroundOutline=1;darkOpacity=0.05;darkOpacity2=0.1;size=20;direction=east;flipH=1;fillColor=#f8cecc;strokeColor=#b85450;" vertex="1" parent="1">
          <mxGeometry x="366" y="261.89" width="35" height="73.13" as="geometry" />
        </mxCell>
      </root>
    </mxGraphModel>
  </diagram>
</mxfile>
